# xmcd CD database file
#
# Track frame offsets:
#	150
#	17899
#	31157
#	50204
#	66028
#	80124
#	92552
#	110886
#	126323
#	139497
#	154386
#	168179
#	183252
#	195661
#	207024
#	220877
#	238097
#	252273
#	270333
#	283850
#	296276
#	311077
#	329667
#
# Disc length: 4576 seconds
#
# Revision: 1
# Processed by: cddbd v1.5.2PL0 Copyright (c) Steve Scherf et al.
# Submitted via: CDex 1.70beta2
#
DISCID=6611de17
DTITLE=Vinson, Laura - Cdn. - AB - If You Don't Play the Game 
DYEAR=2007
DGENRE=Country
TTITLE0=If You Don't Play the Game
TTITLE1=Hootch, Heartache and Hallelujah
TTITLE2=Autumn Leaves
TTITLE3=In My Dreams
TTITLE4=Red Sun
TTITLE5=More Heat Than Light
TTITLE6=45 Years From Now
TTITLE7=Crazy Heart
TTITLE8=Circles
TTITLE9=Rollin Slow
TTITLE10=Waitin' For the Weekend
TTITLE11=The Trap
TTITLE12=Sundown
TTITLE13=Blondes
TTITLE14=Two Sides To Every Story
TTITLE15=Can't Cry Forever
TTITLE16=I'd Rather Walk
TTITLE17=Just A Huirtin' Place
TTITLE18=You Give Me the Strength
TTITLE19=Don't Wait
TTITLE20=It's A Heartache
TTITLE21=Goin' Down Easy
TTITLE22=Rise and Shine
EXTD=YEAR: 2007
EXTT0=
EXTT1=
EXTT2=
EXTT3=
EXTT4=
EXTT5=
EXTT6=
EXTT7=
EXTT8=
EXTT9=
EXTT10=
EXTT11=
EXTT12=
EXTT13=
EXTT14=
EXTT15=
EXTT16=
EXTT17=
EXTT18=
EXTT19=
EXTT20=
EXTT21=
EXTT22=
PLAYORDER=
